<?xml version="1.0" encoding="utf-8"?>
<!-- Svg Vector Icons : http://www.onlinewebfonts.com/icon -->
<!DOCTYPE svg PUBLIC "-//W3C//DTD SVG 1.1//EN" "http://www.w3.org/Graphics/SVG/1.1/DTD/svg11.dtd">
<svg version="1.1" xmlns="http://www.w3.org/2000/svg" xmlns:xlink="http://www.w3.org/1999/xlink" x="0px" y="0px" viewBox="0 0 256 256" enable-background="new 0 0 256 256" xml:space="preserve">
<metadata> Svg Vector Icons : http://www.onlinewebfonts.com/icon </metadata>
<g><g><g><path fill="#000000" d="M106.6,10c13.1,0,25.6,2.6,37.5,7.7s22.2,12,30.8,20.6c8.6,8.6,15.5,18.9,20.6,30.8c5.1,11.9,7.7,24.4,7.7,37.5c0,11.2-1.8,22-5.5,32.3c-3.7,10.3-8.9,19.6-15.6,28l60.9,60.9c2.1,2.1,3.1,4.6,3.1,7.6c0,3.1-1,5.6-3.1,7.7c-2,2-4.6,3.1-7.7,3.1c-3,0-5.6-1-7.6-3.1L166.8,182c-8.4,6.8-17.7,12-28,15.6c-10.3,3.7-21,5.5-32.3,5.5c-13.1,0-25.6-2.6-37.5-7.7c-11.9-5.1-22.2-12-30.8-20.6c-8.6-8.6-15.5-18.9-20.6-30.8S10,119.6,10,106.6c0-13.1,2.6-25.6,7.7-37.5s12-22.2,20.6-30.8c8.6-8.6,18.9-15.5,30.8-20.6C81,12.6,93.5,10,106.6,10z M106.6,31.5c-10.2,0-19.9,2-29.2,5.9c-9.3,4-17.3,9.3-24,16c-6.7,6.7-12,14.7-16,24c-4,9.3-5.9,19-5.9,29.2s2,19.9,5.9,29.2c4,9.3,9.3,17.3,16,24c6.7,6.7,14.7,12,24,16c9.3,4,19,5.9,29.2,5.9s19.9-2,29.2-5.9c9.3-4,17.3-9.3,24-16c6.7-6.7,12-14.7,16-24c4-9.3,5.9-19,5.9-29.2s-2-19.9-5.9-29.2c-4-9.3-9.3-17.3-16-24c-6.7-6.7-14.7-12-24-16C126.4,33.4,116.7,31.5,106.6,31.5z"/></g></g></g>
</svg>